<?xml version="1.0" encoding="utf-8"?>
<!-- Generator: Adobe Illustrator 27.5.0, SVG Export Plug-In . SVG Version: 6.00 Build 0)  -->
<svg version="1.1" id="Layer_1" xmlns="http://www.w3.org/2000/svg" xmlns:xlink="http://www.w3.org/1999/xlink" x="0px" y="0px"
	 viewBox="0 0 252.419 274.415" style="enable-background:new 0 0 252.419 274.415;" xml:space="preserve">
<g>
	<g>
		<path style="fill:#FFFFFF;" d="M122.048,240.322c-0.729,1.121-1.195,2.36-1.388,3.644c-0.191-1.282-0.657-2.521-1.385-3.643
			c-0.4-0.617-1.357-1.971-2.841-3.354c0.329-0.42,0.591-0.898,0.771-1.42l1.908-5.576c1.307,0.02,2.572,0.016,3.889-0.015
			l1.914,5.592c0.119,0.347,0.274,0.674,0.462,0.978C123.614,238.057,122.49,239.641,122.048,240.322z M220.054,199.277
			c3.33-5.361,5.101-11.66,6.307-15.948l0.394-1.392c2.232-7.752,3.63-15.274,4.158-22.357c0.003-0.035,0.006-0.07,0.009-0.104
			c0.001-0.017,0.002-0.033,0.004-0.049l0.001-0.027c0.001-0.006,0.001-0.013,0.002-0.018l0.032-0.531
			c0.055-0.837,0.099-1.671,0.129-2.509l0.023-0.6c0.026-0.923,0.032-1.842,0.025-2.761l-0.007-0.702
			c-0.016-0.919-0.049-1.831-0.101-2.73l-0.043-0.667c-0.064-0.939-0.143-1.87-0.246-2.787l-0.056-0.444
			c-0.114-0.95-0.249-1.881-0.401-2.767l-0.04-0.253c-0.158-0.893-0.352-1.82-0.594-2.842l-0.112-0.471
			c-0.221-0.889-0.477-1.8-0.765-2.71l-0.159-0.489c-0.312-0.95-0.631-1.821-0.961-2.631c-0.045-0.11-0.091-0.221-0.172-0.405
			c-0.429-1.02-0.839-1.903-1.253-2.7c-0.942-1.82-8.928-16.832-18.666-22.605c-5.397-24.11-16.721-47.826-31.268-65.389
			c-16.73-20.2-36.875-31.325-56.721-31.325c-42.808,0-75.966,49.501-86.027,96.897c-9.599,5.899-17.433,20.638-18.356,22.423
			c-0.421,0.814-0.83,1.694-1.285,2.776l-0.127,0.298c-0.34,0.833-0.657,1.698-0.966,2.638l-0.174,0.534
			c-0.281,0.895-0.535,1.794-0.751,2.664l-0.125,0.525c-0.233,0.986-0.424,1.899-0.585,2.805l-0.052,0.316
			c-0.149,0.877-0.277,1.764-0.387,2.664l-0.064,0.506c-0.102,0.903-0.179,1.816-0.241,2.738l-0.047,0.727
			c-0.051,0.884-0.083,1.773-0.099,2.662l-0.009,0.792c-0.006,0.893,0,1.788,0.025,2.679l0.026,0.7
			c0.029,0.793,0.07,1.588,0.122,2.377l0.035,0.566c0.002,0.036,0.004,0.071,0.007,0.106c0.521,7.118,1.924,14.683,4.168,22.48
			l0.393,1.39c1.962,6.99,5.615,20.004,15.486,24.626c1.829,0.855,4.136,0.423,5.542-1.024c0.949-0.977,3.146-6.165,5.085-11.589
			c0.127,0.043,0.258,0.082,0.392,0.117c0.398,0.102,0.807,0.154,1.217,0.154c1.661,0,2.758-0.621,3.555-1.561
			c10.711,15.234,26.446,26.355,45.302,31.892l1.327,4.273c-1.054-0.279-2.135-0.421-3.221-0.421c-3.835,0-7.671,1.724-11.402,5.122
			c-3.415,3.109-6.173,6.185-8.43,9.4c-1.494,2.129-6.04,8.607-2.925,15.269c1.372,2.932,4.253,4.753,7.522,4.753
			c1.416,0,2.823-0.349,4.088-0.999c1.226,1.695,3.127,2.979,5.703,3.307c2.04,0.261,3.91-0.039,5.513-0.846
			c1.008,1.846,2.773,3.443,5.414,4.15c0.864,0.231,1.746,0.349,2.619,0.349c2.597,0,4.975-1.016,6.697-2.86
			c1.794-1.921,2.709-4.609,2.598-7.607c0.09-0.819,0.411-2.711,1.553-5.764c2.555,0.84,5.552,0.487,7.875-1.023
			c2.062-1.337,3.479-3.396,3.99-5.8c0.04-0.192,0.075-0.387,0.104-0.581c0.028,0.194,0.063,0.389,0.104,0.581
			c0.512,2.402,1.928,4.462,3.986,5.799c2.327,1.511,5.325,1.862,7.878,1.024c1.141,3.047,1.463,4.942,1.554,5.767
			c-0.11,2.997,0.805,5.685,2.6,7.605c1.721,1.844,4.1,2.859,6.695,2.859c0.873,0,1.754-0.117,2.618-0.349
			c2.739-0.733,4.448-2.366,5.415-4.149c1.602,0.805,3.466,1.105,5.516,0.845c2.574-0.328,4.476-1.611,5.7-3.307
			c1.266,0.65,2.672,0.999,4.089,0.999c3.269,0,6.15-1.821,7.521-4.753c3.116-6.661-1.43-13.14-2.925-15.27
			c-2.253-3.209-5.01-6.283-8.43-9.4c-4.503-4.1-9.224-5.766-13.763-4.897l1.351-4.341c0.475-0.145,0.949-0.292,1.421-0.444
			l1.447,1.091c0.021,0.017,0.063,0.048,0.084,0.064l1.157,0.862c0.006,0.004,0.011,0.008,0.017,0.013
			c1.031,0.766,2.074,1.531,3.129,2.298c0.036,0.026,0.074,0.052,0.111,0.078c16.671,12.085,48.096,32.433,60.7,32.433
			c3.397,0,5.337-1.38,6.366-2.538c3.31-3.722,3.283-7.947,1.515-12.11c3.156,0.711,5.807,1.069,7.936,1.069
			c3.899,0,6.67-1.206,8.236-3.584c1.588-2.414,2.114-5.184,1.52-8.014c-0.506-2.411-1.796-4.817-3.938-7.294
			c3.176-0.576,6.171-1.923,7.479-4.976c1.233-2.875,1.169-5.911-0.186-8.78C245.717,211.928,240.783,206.107,220.054,199.277z"/>
		<path style="fill:#F1F1F1;" d="M121.458,239.69c-0.729,1.121-1.195,2.36-1.388,3.645c-0.191-1.283-0.657-2.521-1.385-3.644
			c-0.4-0.617-1.357-1.971-2.841-3.355c0.328-0.42,0.591-0.898,0.77-1.42l1.909-5.575c1.307,0.02,2.572,0.015,3.889-0.016
			l1.913,5.592c0.119,0.347,0.275,0.674,0.463,0.979C123.023,237.425,121.9,239.009,121.458,239.69z M219.463,198.645
			c3.331-5.361,5.102-11.66,6.307-15.948l0.394-1.391c2.232-7.753,3.502-15.285,4.157-22.358c0.003-0.034,0.009-0.07,0.011-0.104
			c0.001-0.017,0.001-0.033,0.004-0.049l0.001-0.027c0.001-0.006,0.001-0.013,0.002-0.019l0.032-0.531
			c0.055-0.836,0.098-1.671,0.128-2.509l0.023-0.599c0.026-0.924,0.032-1.843,0.025-2.761l-0.008-0.703
			c-0.015-0.919-0.048-1.831-0.1-2.73l-0.043-0.667c-0.064-0.938-0.144-1.87-0.246-2.787l-0.057-0.444
			c-0.113-0.95-0.249-1.88-0.4-2.767l-0.041-0.253c-0.158-0.892-0.353-1.819-0.594-2.841l-0.112-0.472
			c-0.22-0.889-0.477-1.8-0.764-2.71l-0.159-0.489c-0.311-0.95-0.634-1.821-0.961-2.631c-0.045-0.11-0.093-0.22-0.172-0.405
			c-0.436-1.017-0.839-1.903-1.253-2.7c-0.943-1.82-8.929-16.832-18.667-22.605c-5.397-24.109-16.721-47.825-31.267-65.389
			c-16.731-20.2-36.875-31.325-56.722-31.325c-42.807,0-75.966,49.501-86.026,96.897c-9.599,5.899-17.433,20.639-18.357,22.423
			c-0.42,0.813-0.829,1.695-1.284,2.776l-0.127,0.298c-0.34,0.833-0.657,1.698-0.966,2.638l-0.174,0.534
			c-0.281,0.895-0.535,1.794-0.751,2.664l-0.125,0.525c-0.234,0.986-0.425,1.899-0.586,2.806l-0.051,0.315
			c-0.149,0.877-0.277,1.764-0.387,2.664l-0.064,0.506c-0.102,0.903-0.178,1.817-0.24,2.738l-0.048,0.727
			c-0.05,0.885-0.082,1.773-0.099,2.662l-0.008,0.792c-0.006,0.893,0,1.788,0.025,2.679l0.026,0.7
			c0.029,0.794,0.07,1.588,0.121,2.378l0.036,0.565c0.002,0.036,0.004,0.071,0.007,0.106c0.549,7.116,1.924,14.683,4.168,22.481
			l0.393,1.389c1.962,6.99,5.616,20.004,15.487,24.626c1.829,0.854,4.136,0.423,5.541-1.024c0.949-0.978,3.146-6.165,5.085-11.589
			c0.127,0.043,0.258,0.082,0.393,0.117c0.396,0.102,0.806,0.154,1.217,0.154c1.661,0,2.758-0.621,3.555-1.561
			c10.711,15.234,26.445,26.355,45.301,31.892l1.328,4.272c-1.054-0.279-2.135-0.421-3.222-0.421c-3.834,0-7.67,1.724-11.402,5.122
			c-3.415,3.109-6.172,6.185-8.43,9.4c-1.493,2.129-6.039,8.607-2.924,15.268c1.371,2.932,4.253,4.754,7.522,4.754
			c1.416,0,2.822-0.35,4.087-1c1.226,1.695,3.128,2.979,5.704,3.307c2.04,0.261,3.91-0.039,5.513-0.846
			c1.008,1.846,2.773,3.443,5.414,4.15c0.864,0.231,1.745,0.349,2.619,0.349c2.596,0,4.975-1.016,6.696-2.86
			c1.795-1.921,2.71-4.609,2.599-7.607c0.089-0.819,0.41-2.711,1.553-5.764c2.555,0.841,5.552,0.487,7.875-1.023
			c2.061-1.337,3.478-3.396,3.989-5.8c0.041-0.191,0.076-0.387,0.105-0.581c0.028,0.194,0.063,0.39,0.104,0.581
			c0.511,2.402,1.928,4.462,3.985,5.8c2.328,1.511,5.326,1.861,7.879,1.023c1.141,3.047,1.463,4.942,1.554,5.767
			c-0.11,2.997,0.805,5.684,2.599,7.605c1.722,1.844,4.101,2.859,6.695,2.859c0.874,0,1.755-0.117,2.618-0.349
			c2.74-0.733,4.449-2.366,5.416-4.149c1.602,0.805,3.466,1.105,5.515,0.845c2.575-0.327,4.476-1.611,5.701-3.307
			c1.266,0.65,2.672,1,4.088,1c3.269,0,6.149-1.822,7.522-4.754c3.115-6.661-1.431-13.14-2.925-15.27
			c-2.253-3.209-5.012-6.283-8.43-9.4c-4.504-4.101-9.224-5.765-13.764-4.898l1.352-4.341c0.475-0.145,0.949-0.292,1.421-0.443
			l1.447,1.09c0.02,0.017,0.063,0.048,0.084,0.063l1.157,0.862c0.005,0.005,0.011,0.008,0.017,0.013
			c1.03,0.766,2.076,1.527,3.129,2.298c0.036,0.026,0.074,0.052,0.11,0.078c16.699,12.048,48.096,32.433,60.7,32.433
			c3.396,0,5.338-1.38,6.365-2.538c3.311-3.722,3.283-7.947,1.516-12.11c3.156,0.711,5.808,1.069,7.936,1.069
			c3.9,0,6.67-1.206,8.236-3.584c1.589-2.414,2.114-5.185,1.521-8.014c-0.506-2.411-1.797-4.817-3.939-7.294
			c3.174-0.576,6.17-1.923,7.48-4.976c1.233-2.875,1.169-5.911-0.186-8.779C245.126,211.296,240.193,205.476,219.463,198.645z"/>
		<path style="fill:#E2E2E2;" d="M120.868,239.06c-0.729,1.121-1.195,2.36-1.388,3.643c-0.191-1.282-0.658-2.521-1.385-3.643
			c-0.401-0.616-1.357-1.97-2.842-3.354c0.329-0.42,0.592-0.898,0.771-1.42l1.909-5.576c1.306,0.02,2.571,0.016,3.888-0.016
			l1.914,5.593c0.119,0.347,0.274,0.674,0.462,0.978C122.434,236.794,121.311,238.378,120.868,239.06z M218.874,198.015
			c3.329-5.361,5.1-11.66,6.306-15.948l0.395-1.392c2.231-7.752,3.605-15.276,4.157-22.357c0.003-0.035,0.007-0.07,0.01-0.104
			c0.001-0.017,0.002-0.033,0.004-0.049l0.001-0.027c0.001-0.006,0.001-0.013,0.001-0.02l0.032-0.53
			c0.056-0.837,0.099-1.671,0.129-2.509l0.023-0.6c0.026-0.923,0.032-1.842,0.025-2.761l-0.008-0.702
			c-0.015-0.919-0.048-1.831-0.101-2.73l-0.042-0.667c-0.064-0.938-0.143-1.87-0.247-2.787l-0.056-0.444
			c-0.113-0.95-0.249-1.881-0.4-2.767l-0.041-0.253c-0.158-0.893-0.353-1.82-0.594-2.842l-0.111-0.471
			c-0.221-0.889-0.477-1.8-0.765-2.71l-0.159-0.489c-0.311-0.95-0.634-1.821-0.962-2.631c-0.044-0.11-0.092-0.22-0.171-0.405
			c-0.437-1.017-0.84-1.903-1.254-2.701c-0.942-1.819-8.928-16.831-18.666-22.604c-5.397-24.11-16.721-47.826-31.267-65.389
			C158.384,20.925,138.239,9.8,118.393,9.8c-42.807,0-75.966,49.501-86.026,96.898c-9.599,5.898-17.433,20.638-18.357,22.423
			c-0.421,0.813-0.83,1.694-1.284,2.776l-0.127,0.298c-0.341,0.832-0.658,1.698-0.967,2.638l-0.173,0.534
			c-0.281,0.895-0.535,1.794-0.751,2.664l-0.126,0.525c-0.233,0.985-0.424,1.899-0.585,2.805l-0.051,0.316
			c-0.15,0.877-0.278,1.764-0.387,2.664l-0.064,0.506c-0.102,0.903-0.178,1.816-0.24,2.738l-0.048,0.726
			c-0.05,0.884-0.082,1.774-0.099,2.662l-0.009,0.792c-0.005,0.892,0,1.788,0.026,2.679l0.026,0.7
			c0.029,0.793,0.07,1.588,0.121,2.377l0.036,0.566c0.002,0.036,0.004,0.071,0.007,0.105c0.557,7.116,1.924,14.684,4.168,22.481
			l0.393,1.39c1.962,6.99,5.615,20.004,15.487,24.626c1.829,0.855,4.136,0.423,5.541-1.024c0.949-0.977,3.147-6.165,5.085-11.589
			c0.127,0.043,0.258,0.082,0.393,0.117c0.396,0.102,0.806,0.154,1.216,0.154c1.662,0,2.759-0.621,3.556-1.562
			c10.71,15.234,26.445,26.357,45.301,31.893l1.328,4.272c-1.055-0.279-2.136-0.421-3.222-0.421c-3.835,0-7.67,1.724-11.402,5.122
			c-3.415,3.109-6.173,6.185-8.43,9.399c-1.494,2.13-6.04,8.607-2.924,15.27c1.371,2.932,4.253,4.753,7.522,4.753
			c1.416,0,2.823-0.35,4.088-0.999c1.226,1.695,3.128,2.978,5.703,3.307c2.041,0.261,3.91-0.039,5.514-0.846
			c1.008,1.846,2.774,3.443,5.413,4.15c0.865,0.232,1.746,0.349,2.619,0.349c2.597,0,4.976-1.016,6.697-2.86
			c1.794-1.921,2.709-4.609,2.599-7.607c0.089-0.819,0.41-2.712,1.553-5.764c2.555,0.84,5.552,0.487,7.874-1.023
			c2.062-1.337,3.479-3.396,3.99-5.8c0.041-0.192,0.076-0.387,0.105-0.581c0.028,0.194,0.063,0.389,0.104,0.581
			c0.512,2.402,1.928,4.462,3.986,5.799c2.327,1.511,5.325,1.862,7.879,1.024c1.14,3.047,1.462,4.942,1.553,5.767
			c-0.109,2.997,0.806,5.684,2.6,7.605c1.722,1.844,4.1,2.859,6.695,2.859c0.873,0,1.754-0.117,2.618-0.349
			c2.739-0.733,4.448-2.366,5.416-4.149c1.602,0.805,3.466,1.105,5.515,0.845c2.574-0.328,4.475-1.611,5.7-3.307
			c1.266,0.649,2.673,0.999,4.089,0.999c3.269,0,6.15-1.821,7.522-4.753c3.115-6.662-1.431-13.14-2.926-15.27
			c-2.252-3.209-5.01-6.283-8.43-9.4c-4.503-4.101-9.224-5.766-13.763-4.898l1.351-4.341c0.475-0.145,0.949-0.292,1.421-0.444
			l1.448,1.091c0.021,0.016,0.063,0.048,0.084,0.063l1.156,0.861c0.006,0.005,0.012,0.009,0.018,0.014
			c1.03,0.765,2.076,1.527,3.129,2.298c0.035,0.026,0.073,0.051,0.11,0.078c16.597,12.186,48.096,32.433,60.701,32.433
			c3.396,0,5.337-1.38,6.365-2.538c3.31-3.722,3.283-7.947,1.515-12.111c3.156,0.712,5.807,1.07,7.937,1.07
			c3.898,0,6.67-1.206,8.235-3.585c1.589-2.413,2.114-5.184,1.521-8.013c-0.506-2.411-1.796-4.817-3.938-7.294
			c3.175-0.576,6.17-1.923,7.479-4.976c1.233-2.875,1.169-5.911-0.186-8.78C244.536,210.665,239.603,204.845,218.874,198.015z"/>
		<path style="fill:#D4D4D4;" d="M120.277,238.428c-0.729,1.121-1.195,2.359-1.388,3.644c-0.191-1.282-0.657-2.521-1.385-3.643
			c-0.4-0.617-1.357-1.971-2.841-3.354c0.329-0.42,0.591-0.898,0.771-1.42l1.907-5.576c1.308,0.021,2.573,0.016,3.89-0.015
			l1.914,5.592c0.119,0.347,0.274,0.674,0.462,0.977C121.844,236.162,120.72,237.746,120.277,238.428z M218.284,197.383
			c3.329-5.361,5.1-11.66,6.306-15.948l0.394-1.392c2.232-7.752,3.606-15.275,4.158-22.357c0.003-0.035,0.005-0.07,0.008-0.104
			c0.002-0.017,0.002-0.033,0.005-0.049l0.001-0.027c0.001-0.006,0.001-0.013,0.002-0.019l0.032-0.531
			c0.055-0.837,0.099-1.671,0.129-2.509l0.022-0.6c0.027-0.923,0.032-1.842,0.026-2.761l-0.009-0.702
			c-0.015-0.919-0.048-1.832-0.1-2.73l-0.043-0.667c-0.064-0.938-0.143-1.87-0.246-2.787l-0.056-0.444
			c-0.114-0.95-0.249-1.881-0.4-2.768l-0.041-0.252c-0.158-0.893-0.353-1.82-0.594-2.842l-0.112-0.471
			c-0.222-0.889-0.478-1.8-0.766-2.711l-0.158-0.488c-0.312-0.95-0.632-1.822-0.961-2.631c-0.046-0.11-0.093-0.22-0.173-0.405
			c-0.437-1.016-0.838-1.903-1.252-2.7c-0.942-1.82-8.928-16.832-18.667-22.606c-5.397-24.11-16.72-47.826-31.267-65.389
			c-16.731-20.2-36.875-31.325-56.721-31.325c-42.808,0-75.966,49.5-86.027,96.897c-9.599,5.899-17.433,20.638-18.357,22.423
			c-0.42,0.814-0.829,1.694-1.284,2.776l-0.127,0.298c-0.34,0.833-0.657,1.698-0.967,2.638l-0.173,0.533
			c-0.282,0.896-0.536,1.794-0.751,2.665l-0.125,0.525c-0.233,0.986-0.424,1.899-0.585,2.805l-0.053,0.316
			c-0.148,0.877-0.276,1.764-0.385,2.664l-0.064,0.506c-0.102,0.903-0.179,1.815-0.241,2.738l-0.047,0.727
			c-0.051,0.884-0.083,1.773-0.099,2.662l-0.009,0.792c-0.006,0.893,0,1.788,0.025,2.679l0.025,0.7
			c0.031,0.793,0.071,1.588,0.123,2.377l0.035,0.566c0.002,0.036,0.004,0.071,0.007,0.106c0.549,7.115,1.923,14.683,4.168,22.48
			l0.394,1.39c1.962,6.99,5.614,20.004,15.486,24.626c1.829,0.855,4.136,0.423,5.542-1.024c0.949-0.978,3.146-6.165,5.085-11.589
			c0.127,0.043,0.258,0.082,0.392,0.117c0.398,0.102,0.807,0.154,1.217,0.154c1.661,0,2.759-0.621,3.555-1.561
			c10.711,15.234,26.446,26.355,45.302,31.892l1.328,4.272c-1.055-0.279-2.136-0.421-3.222-0.421c-3.835,0-7.671,1.724-11.402,5.122
			c-3.415,3.109-6.173,6.185-8.43,9.4c-1.494,2.129-6.041,8.607-2.925,15.268c1.372,2.932,4.254,4.753,7.522,4.753
			c1.416,0,2.822-0.349,4.088-0.999c1.226,1.695,3.128,2.979,5.703,3.307c2.039,0.261,3.909-0.04,5.513-0.846
			c1.007,1.846,2.773,3.443,5.414,4.15c0.864,0.231,1.746,0.349,2.619,0.349c2.597,0,4.974-1.016,6.697-2.861
			c1.794-1.92,2.709-4.608,2.599-7.607c0.089-0.819,0.409-2.711,1.552-5.764c2.555,0.84,5.553,0.487,7.875-1.023
			c2.062-1.337,3.486-3.395,3.99-5.8c0.04-0.192,0.075-0.387,0.104-0.582c0.029,0.195,0.063,0.39,0.104,0.582
			c0.504,2.404,1.929,4.461,3.987,5.799c2.327,1.511,5.324,1.862,7.878,1.024c1.141,3.047,1.463,4.942,1.554,5.766
			c-0.109,2.998,0.806,5.685,2.6,7.606c1.721,1.844,4.1,2.859,6.695,2.859c0.873,0,1.754-0.117,2.618-0.349
			c2.739-0.733,4.448-2.367,5.415-4.149c1.602,0.805,3.467,1.105,5.515,0.845c2.575-0.328,4.477-1.611,5.701-3.307
			c1.266,0.65,2.672,0.999,4.088,0.999c3.27,0,6.151-1.821,7.523-4.753c3.116-6.661-1.43-13.14-2.925-15.27
			c-2.253-3.209-5.011-6.283-8.431-9.4c-4.503-4.101-9.223-5.766-13.762-4.897l1.351-4.341c0.474-0.145,0.949-0.292,1.421-0.444
			l1.447,1.09c0.021,0.018,0.063,0.049,0.084,0.064l1.157,0.862c0.006,0.004,0.012,0.008,0.017,0.013
			c1.031,0.766,2.076,1.527,3.129,2.298c0.036,0.026,0.073,0.052,0.111,0.078c16.771,11.947,48.096,32.433,60.7,32.433
			c3.397,0,5.337-1.38,6.366-2.538c3.31-3.722,3.283-7.947,1.515-12.11c3.156,0.711,5.807,1.069,7.936,1.069
			c3.899,0,6.67-1.206,8.236-3.584c1.588-2.414,2.114-5.185,1.521-8.014c-0.506-2.411-1.796-4.817-3.939-7.294
			c3.175-0.576,6.171-1.923,7.48-4.976c1.233-2.875,1.169-5.911-0.186-8.78C243.946,210.033,239.013,204.213,218.284,197.383z"/>
		<path style="fill:#C5C5C5;" d="M119.688,237.796c-0.729,1.121-1.195,2.36-1.388,3.645c-0.191-1.282-0.657-2.521-1.385-3.643
			c-0.4-0.617-1.357-1.971-2.841-3.355c0.328-0.419,0.591-0.898,0.769-1.419l1.909-5.577c1.307,0.02,2.572,0.017,3.889-0.014
			l1.913,5.591c0.119,0.348,0.275,0.674,0.463,0.978C121.253,235.531,120.13,237.115,119.688,237.796z M217.693,196.752
			c3.33-5.361,5.101-11.66,6.307-15.949l0.393-1.392c2.232-7.751,3.607-15.275,4.157-22.357c0.003-0.035,0.007-0.069,0.01-0.104
			c0.001-0.017,0.002-0.033,0.004-0.048l0.001-0.028c0.001-0.005,0.001-0.012,0.002-0.018l0.032-0.532
			c0.055-0.837,0.099-1.671,0.129-2.509l0.022-0.6c0.026-0.923,0.032-1.842,0.025-2.761l-0.008-0.701
			c-0.015-0.919-0.048-1.832-0.1-2.73l-0.043-0.668c-0.063-0.939-0.143-1.869-0.246-2.786l-0.056-0.444
			c-0.114-0.951-0.25-1.881-0.401-2.767l-0.04-0.252c-0.158-0.894-0.353-1.821-0.595-2.842l-0.111-0.471
			c-0.221-0.889-0.478-1.8-0.765-2.711l-0.159-0.489c-0.312-0.95-0.631-1.821-0.961-2.631c-0.045-0.109-0.092-0.22-0.172-0.405
			c-0.435-1.018-0.839-1.903-1.253-2.7c-0.942-1.82-8.929-16.832-18.666-22.605c-5.397-24.109-16.722-47.825-31.268-65.388
			c-16.73-20.201-36.875-31.326-56.722-31.326c-42.807,0-75.966,49.501-86.026,96.897c-9.599,5.9-17.433,20.638-18.357,22.423
			c-0.42,0.813-0.829,1.695-1.284,2.776l-0.127,0.298c-0.34,0.834-0.657,1.698-0.966,2.639l-0.174,0.533
			c-0.281,0.896-0.535,1.794-0.751,2.665l-0.125,0.525c-0.234,0.986-0.425,1.899-0.586,2.804l-0.051,0.316
			c-0.149,0.877-0.277,1.764-0.387,2.665l-0.064,0.506c-0.101,0.902-0.178,1.815-0.24,2.737l-0.048,0.727
			c-0.05,0.884-0.082,1.773-0.098,2.662l-0.009,0.792c-0.006,0.893,0,1.787,0.025,2.678l0.026,0.7
			c0.029,0.793,0.07,1.588,0.121,2.377l0.036,0.566c0.002,0.037,0.004,0.071,0.007,0.107c0.541,7.115,1.924,14.683,4.168,22.48
			l0.394,1.39c1.961,6.99,5.615,20.004,15.486,24.626c1.829,0.854,4.136,0.423,5.542-1.023c0.948-0.979,3.146-6.166,5.085-11.59
			c0.126,0.043,0.257,0.083,0.392,0.118c0.397,0.102,0.807,0.153,1.217,0.153c1.661,0,2.758-0.621,3.555-1.56
			c10.711,15.234,26.445,26.354,45.301,31.891l1.328,4.273c-1.054-0.279-2.135-0.421-3.222-0.421c-3.834,0-7.67,1.725-11.402,5.122
			c-3.414,3.109-6.172,6.185-8.43,9.401c-1.493,2.128-6.039,8.607-2.924,15.269c1.372,2.931,4.253,4.752,7.522,4.752
			c1.416,0,2.822-0.348,4.087-0.999c1.226,1.695,3.128,2.978,5.704,3.308c2.04,0.261,3.91-0.04,5.513-0.847
			c1.008,1.847,2.773,3.443,5.414,4.15c0.864,0.232,1.745,0.349,2.619,0.349c2.596,0,4.975-1.016,6.697-2.86
			c1.794-1.921,2.709-4.609,2.598-7.606c0.089-0.82,0.41-2.711,1.553-5.765c2.555,0.841,5.552,0.487,7.875-1.023
			c2.061-1.336,3.479-3.395,3.989-5.8c0.041-0.192,0.076-0.387,0.105-0.581c0.028,0.194,0.063,0.389,0.105,0.581
			c0.512,2.402,1.928,4.462,3.985,5.799c2.328,1.511,5.326,1.862,7.879,1.024c1.141,3.047,1.463,4.942,1.554,5.767
			c-0.11,2.997,0.805,5.686,2.599,7.607c1.722,1.843,4.1,2.858,6.695,2.858c0.874,0,1.755-0.117,2.618-0.349
			c2.74-0.732,4.449-2.366,5.416-4.149c1.602,0.806,3.466,1.106,5.515,0.846c2.575-0.329,4.477-1.612,5.701-3.308
			c1.266,0.651,2.672,0.999,4.088,0.999c3.27,0,6.15-1.821,7.522-4.752c3.115-6.661-1.431-13.141-2.925-15.27
			c-2.253-3.209-5.011-6.283-8.43-9.401c-4.504-4.101-9.224-5.765-13.763-4.898l1.351-4.341c0.475-0.144,0.949-0.291,1.421-0.444
			l1.447,1.091c0.02,0.017,0.063,0.048,0.084,0.064l1.157,0.862c0.005,0.004,0.011,0.007,0.017,0.013
			c1.03,0.766,2.076,1.526,3.129,2.297c0.036,0.026,0.074,0.053,0.11,0.079c16.699,12.047,48.096,32.432,60.701,32.432
			c3.396,0,5.337-1.38,6.365-2.538c3.311-3.721,3.283-7.947,1.516-12.109c3.156,0.71,5.807,1.068,7.936,1.068
			c3.899,0,6.67-1.205,8.235-3.583c1.589-2.415,2.114-5.185,1.521-8.014c-0.506-2.412-1.796-4.817-3.939-7.294
			c3.175-0.577,6.17-1.923,7.48-4.977c1.233-2.875,1.169-5.911-0.186-8.78C243.356,209.402,238.423,203.582,217.693,196.752z"/>
		<path style="fill:#B7B7B7;" d="M119.098,237.165c-0.729,1.121-1.194,2.36-1.388,3.645c-0.191-1.283-0.657-2.521-1.385-3.644
			c-0.4-0.617-1.357-1.971-2.84-3.355c0.327-0.42,0.59-0.898,0.769-1.42l1.91-5.575c1.305,0.02,2.57,0.015,3.888-0.016l1.913,5.592
			c0.119,0.347,0.274,0.674,0.462,0.978C120.663,234.899,119.54,236.483,119.098,237.165z M217.105,196.12
			c3.328-5.361,5.099-11.66,6.305-15.948l0.395-1.391c2.231-7.753,3.702-15.271,4.158-22.358c0.002-0.035,0.008-0.07,0.01-0.104
			c0.001-0.017,0.002-0.033,0.003-0.049l0.001-0.027c0.001-0.006,0.001-0.012,0.002-0.019l0.032-0.531
			c0.055-0.836,0.098-1.671,0.128-2.509l0.023-0.599c0.026-0.924,0.032-1.843,0.026-2.762l-0.008-0.702
			c-0.016-0.919-0.049-1.831-0.102-2.73l-0.042-0.667c-0.063-0.938-0.143-1.87-0.247-2.787l-0.056-0.444
			c-0.113-0.95-0.249-1.88-0.4-2.767l-0.04-0.253c-0.159-0.892-0.353-1.82-0.595-2.841l-0.111-0.471
			c-0.22-0.89-0.478-1.801-0.764-2.711l-0.16-0.489c-0.312-0.95-0.636-1.82-0.962-2.631c-0.044-0.11-0.092-0.221-0.17-0.405
			c-0.434-1.018-0.841-1.903-1.255-2.701c-0.941-1.819-8.927-16.831-18.664-22.604c-5.398-24.109-16.723-47.825-31.269-65.389
			c-16.729-20.2-36.875-31.325-56.722-31.325c-42.807,0-75.966,49.501-86.026,96.897c-9.598,5.9-17.432,20.638-18.357,22.423
			c-0.42,0.813-0.83,1.695-1.283,2.776l-0.127,0.298c-0.342,0.833-0.658,1.698-0.968,2.638l-0.173,0.534
			c-0.281,0.895-0.535,1.794-0.751,2.664l-0.125,0.526c-0.234,0.985-0.425,1.898-0.586,2.804l-0.051,0.316
			c-0.149,0.877-0.278,1.764-0.387,2.664l-0.063,0.506c-0.102,0.903-0.178,1.816-0.24,2.738l-0.049,0.727
			c-0.05,0.885-0.082,1.773-0.098,2.662l-0.01,0.792c-0.005,0.893,0,1.788,0.026,2.679l0.026,0.7
			c0.029,0.794,0.071,1.588,0.121,2.378l0.036,0.566c0.002,0.037,0.004,0.071,0.007,0.106c0.548,7.116,1.924,14.683,4.168,22.481
			l0.393,1.389c1.962,6.99,5.615,20.004,15.487,24.626c1.829,0.855,4.136,0.423,5.541-1.024c0.949-0.977,3.147-6.165,5.085-11.589
			c0.127,0.043,0.258,0.082,0.393,0.117c0.396,0.102,0.806,0.154,1.216,0.154c1.662,0,2.759-0.621,3.556-1.561
			c10.71,15.234,26.445,26.355,45.301,31.892l1.328,4.272c-1.054-0.279-2.135-0.421-3.221-0.421c-3.835,0-7.671,1.724-11.403,5.122
			c-3.414,3.109-6.172,6.185-8.43,9.4c-1.494,2.129-6.04,8.607-2.924,15.269c1.371,2.932,4.253,4.754,7.522,4.754
			c1.416,0,2.823-0.35,4.087-1c1.226,1.695,3.128,2.979,5.703,3.307c2.041,0.261,3.911-0.039,5.514-0.846
			c1.008,1.846,2.774,3.443,5.413,4.15c0.865,0.231,1.747,0.349,2.619,0.349c2.597,0,4.976-1.016,6.697-2.86
			c1.794-1.921,2.709-4.609,2.599-7.608c0.089-0.819,0.41-2.711,1.553-5.764c2.555,0.841,5.552,0.487,7.874-1.023
			c2.061-1.337,3.478-3.396,3.99-5.8c0.041-0.192,0.076-0.387,0.105-0.581c0.028,0.194,0.063,0.389,0.104,0.581
			c0.512,2.402,1.928,4.462,3.987,5.8c2.326,1.51,5.324,1.861,7.878,1.023c1.141,3.047,1.462,4.942,1.553,5.767
			c-0.109,2.997,0.806,5.685,2.6,7.605c1.723,1.844,4.1,2.859,6.695,2.859c0.873,0,1.755-0.117,2.618-0.349
			c2.739-0.733,4.448-2.366,5.416-4.149c1.602,0.805,3.466,1.105,5.515,0.845c2.574-0.327,4.476-1.611,5.7-3.307
			c1.267,0.65,2.673,1,4.09,1c3.268,0,6.149-1.822,7.521-4.754c3.116-6.661-1.431-13.14-2.926-15.27
			c-2.252-3.209-5.01-6.283-8.43-9.4c-4.502-4.101-9.224-5.766-13.763-4.897l1.351-4.341c0.475-0.145,0.949-0.292,1.421-0.444
			l1.448,1.091c0.02,0.016,0.063,0.048,0.084,0.064l1.156,0.862c0.006,0.005,0.012,0.008,0.018,0.013
			c1.03,0.766,2.077,1.527,3.129,2.298c0.036,0.026,0.073,0.052,0.11,0.078c16.698,12.047,48.096,32.433,60.701,32.433
			c3.396,0,5.337-1.38,6.365-2.538c3.31-3.722,3.283-7.947,1.515-12.11c3.156,0.711,5.808,1.069,7.938,1.069
			c3.897,0,6.669-1.206,8.234-3.584c1.589-2.414,2.114-5.185,1.521-8.014c-0.505-2.411-1.795-4.817-3.939-7.294
			c3.176-0.576,6.17-1.923,7.48-4.976c1.233-2.875,1.169-5.911-0.186-8.779C242.766,208.77,237.832,202.95,217.105,196.12z"/>
		<path style="fill:#A8A8A8;" d="M118.507,236.534c-0.728,1.12-1.195,2.359-1.388,3.643c-0.191-1.282-0.657-2.521-1.385-3.643
			c-0.4-0.616-1.357-1.971-2.841-3.354c0.329-0.421,0.592-0.898,0.771-1.421l1.908-5.576c1.307,0.021,2.572,0.016,3.889-0.015
			l1.914,5.593c0.119,0.346,0.274,0.673,0.462,0.977C120.073,234.268,118.949,235.852,118.507,236.534z M216.514,195.489
			c3.329-5.362,5.1-11.661,6.306-15.949l0.394-1.392c2.232-7.751,3.606-15.275,4.158-22.357c0.003-0.035,0.007-0.07,0.009-0.105
			c0.001-0.017,0.002-0.032,0.004-0.049l0.001-0.027c0.001-0.006,0.001-0.013,0.002-0.019l0.032-0.53
			c0.055-0.838,0.099-1.672,0.129-2.51l0.023-0.6c0.027-0.922,0.032-1.841,0.026-2.761l-0.008-0.702
			c-0.016-0.919-0.049-1.831-0.1-2.73l-0.043-0.667c-0.064-0.938-0.143-1.869-0.246-2.786l-0.056-0.445
			c-0.113-0.949-0.249-1.881-0.4-2.767l-0.041-0.253c-0.158-0.893-0.352-1.82-0.594-2.842l-0.112-0.471
			c-0.221-0.889-0.478-1.8-0.765-2.71l-0.158-0.489c-0.313-0.95-0.635-1.82-0.962-2.63c-0.046-0.111-0.092-0.221-0.172-0.405
			c-0.436-1.018-0.839-1.904-1.253-2.701c-0.942-1.82-8.928-16.832-18.666-22.605c-5.397-24.11-16.721-47.826-31.268-65.389
			c-16.73-20.2-36.875-31.324-56.721-31.324c-42.807,0-75.966,49.5-86.027,96.896c-9.599,5.899-17.433,20.638-18.356,22.423
			c-0.421,0.813-0.83,1.694-1.285,2.776l-0.127,0.299c-0.34,0.832-0.657,1.697-0.966,2.637l-0.174,0.534
			c-0.281,0.895-0.535,1.794-0.751,2.664l-0.125,0.525c-0.233,0.986-0.424,1.899-0.585,2.805l-0.052,0.317
			c-0.149,0.876-0.277,1.763-0.386,2.663l-0.064,0.506c-0.102,0.904-0.179,1.816-0.241,2.738l-0.047,0.728
			c-0.051,0.883-0.083,1.772-0.099,2.661l-0.009,0.792c-0.006,0.893,0,1.789,0.025,2.679l0.027,0.7
			c0.029,0.793,0.069,1.589,0.121,2.377l0.036,0.566c0.001,0.036,0.003,0.072,0.006,0.107c0.558,7.115,1.924,14.683,4.168,22.48
			l0.394,1.391c1.962,6.99,5.615,20.004,15.486,24.625c1.829,0.855,4.136,0.424,5.542-1.024c0.949-0.978,3.146-6.165,5.085-11.588
			c0.127,0.042,0.258,0.082,0.392,0.116c0.397,0.102,0.807,0.155,1.217,0.155c1.661,0,2.759-0.622,3.555-1.561
			c10.711,15.234,26.446,26.355,45.302,31.893l1.328,4.273c-1.055-0.28-2.136-0.422-3.222-0.422c-3.835,0-7.67,1.724-11.402,5.122
			c-3.415,3.109-6.173,6.184-8.43,9.4c-1.494,2.129-6.04,8.607-2.925,15.268c1.372,2.933,4.254,4.753,7.523,4.753
			c1.416,0,2.823-0.349,4.088-0.998c1.226,1.694,3.128,2.977,5.703,3.306c2.04,0.261,3.91-0.039,5.513-0.845
			c1.009,1.845,2.774,3.442,5.414,4.149c0.865,0.232,1.746,0.35,2.619,0.35c2.597,0,4.975-1.017,6.697-2.861
			c1.794-1.92,2.709-4.608,2.599-7.607c0.089-0.819,0.41-2.711,1.552-5.764c2.556,0.84,5.553,0.487,7.875-1.022
			c2.062-1.338,3.479-3.398,3.99-5.801c0.04-0.192,0.075-0.387,0.104-0.581c0.028,0.194,0.063,0.389,0.104,0.581
			c0.512,2.403,1.928,4.462,3.986,5.799c2.327,1.511,5.325,1.862,7.878,1.024c1.141,3.047,1.463,4.942,1.554,5.767
			c-0.109,2.998,0.806,5.685,2.6,7.605c1.721,1.844,4.1,2.86,6.695,2.86c0.873,0,1.754-0.118,2.618-0.35
			c2.739-0.733,4.448-2.366,5.415-4.149c1.603,0.805,3.467,1.105,5.516,0.845c2.574-0.328,4.476-1.611,5.7-3.306
			c1.266,0.649,2.673,0.998,4.089,0.998c3.269,0,6.15-1.82,7.521-4.753c3.116-6.661-1.43-13.14-2.925-15.27
			c-2.253-3.209-5.01-6.283-8.43-9.399c-4.503-4.102-9.224-5.767-13.763-4.897l1.351-4.342c0.475-0.145,0.949-0.292,1.421-0.444
			l1.447,1.091c0.021,0.017,0.063,0.048,0.085,0.064l1.156,0.862c0.006,0.004,0.012,0.009,0.017,0.013
			c1.031,0.766,2.07,1.537,3.129,2.299c0.036,0.025,0.074,0.051,0.111,0.077c16.698,12.048,48.096,32.433,60.7,32.433
			c3.397,0,5.337-1.38,6.366-2.538c3.31-3.722,3.283-7.946,1.515-12.11c3.156,0.711,5.807,1.07,7.937,1.07
			c3.898,0,6.669-1.207,8.235-3.585c1.588-2.414,2.114-5.185,1.521-8.014c-0.506-2.411-1.797-4.817-3.939-7.294
			c3.176-0.576,6.171-1.923,7.479-4.976c1.233-2.875,1.169-5.91-0.186-8.78C242.176,208.139,237.242,202.318,216.514,195.489z"/>
		<path style="fill:#9A9A9A;" d="M117.917,235.901c-0.729,1.121-1.195,2.36-1.388,3.644c-0.191-1.281-0.657-2.521-1.385-3.642
			c-0.4-0.618-1.357-1.971-2.841-3.355c0.329-0.42,0.591-0.899,0.771-1.42l1.908-5.576c1.307,0.02,2.572,0.016,3.889-0.015
			l1.913,5.591c0.12,0.347,0.275,0.674,0.463,0.979C119.483,233.637,118.359,235.221,117.917,235.901z M215.923,194.857
			c3.33-5.36,5.101-11.659,6.307-15.948l0.394-1.391c2.231-7.753,3.606-15.276,4.157-22.357c0.003-0.035,0.007-0.07,0.01-0.105
			c0.001-0.017,0.002-0.034,0.004-0.049l0.001-0.028c0.001-0.006,0.001-0.012,0.002-0.018l0.032-0.531
			c0.055-0.837,0.099-1.672,0.129-2.51l0.023-0.599c0.026-0.923,0.032-1.843,0.025-2.761l-0.007-0.702
			c-0.016-0.919-0.049-1.832-0.101-2.73l-0.043-0.668c-0.064-0.939-0.143-1.87-0.246-2.787l-0.056-0.443
			c-0.114-0.95-0.249-1.882-0.401-2.768l-0.04-0.252c-0.158-0.893-0.353-1.82-0.595-2.843l-0.111-0.47
			c-0.221-0.89-0.477-1.8-0.765-2.711l-0.159-0.488c-0.311-0.951-0.634-1.822-0.961-2.631c-0.045-0.11-0.092-0.22-0.172-0.405
			c-0.436-1.018-0.839-1.903-1.253-2.701c-0.942-1.82-8.928-16.832-18.666-22.605c-5.397-24.11-16.722-47.826-31.267-65.388
			c-16.731-20.201-36.875-31.326-56.721-31.326c-42.808,0-75.967,49.501-86.027,96.898c-9.599,5.899-17.433,20.638-18.357,22.423
			c-0.42,0.813-0.829,1.693-1.284,2.776l-0.127,0.298c-0.34,0.833-0.657,1.698-0.966,2.637l-0.174,0.534
			c-0.281,0.896-0.535,1.794-0.751,2.665l-0.125,0.525c-0.234,0.986-0.425,1.899-0.586,2.805l-0.051,0.316
			c-0.149,0.876-0.277,1.764-0.387,2.664l-0.064,0.506c-0.101,0.903-0.178,1.815-0.24,2.738l-0.048,0.726
			c-0.05,0.884-0.082,1.773-0.098,2.663l-0.009,0.792c-0.006,0.893,0,1.787,0.025,2.679l0.026,0.699
			c0.029,0.794,0.07,1.589,0.121,2.378l0.036,0.566c0.002,0.036,0.004,0.07,0.007,0.106c0.541,7.115,1.924,14.683,4.168,22.48
			l0.394,1.39c1.961,6.99,5.615,20.003,15.486,24.626c1.829,0.854,4.136,0.423,5.542-1.025c0.949-0.977,3.146-6.165,5.085-11.588
			c0.127,0.043,0.257,0.082,0.392,0.117c0.396,0.104,0.807,0.154,1.217,0.154c1.661,0,2.758-0.621,3.555-1.561
			c10.711,15.234,26.446,26.354,45.301,31.891l1.328,4.273c-1.054-0.278-2.135-0.421-3.222-0.421c-3.834,0-7.67,1.725-11.402,5.123
			c-3.414,3.108-6.172,6.184-8.43,9.4c-1.493,2.128-6.039,8.607-2.924,15.268c1.372,2.931,4.253,4.753,7.522,4.753
			c1.416,0,2.822-0.35,4.087-1c1.227,1.695,3.128,2.979,5.704,3.308c2.04,0.26,3.91-0.04,5.513-0.846
			c1.008,1.846,2.773,3.443,5.414,4.15c0.864,0.23,1.745,0.348,2.619,0.348c2.596,0,4.975-1.015,6.697-2.86
			c1.794-1.921,2.709-4.609,2.598-7.607c0.09-0.82,0.41-2.711,1.553-5.764c2.555,0.839,5.552,0.487,7.875-1.024
			c2.061-1.336,3.479-3.396,3.989-5.8c0.041-0.191,0.076-0.386,0.106-0.581c0.028,0.195,0.063,0.39,0.104,0.581
			c0.512,2.402,1.928,4.462,3.986,5.8c2.327,1.511,5.325,1.862,7.878,1.024c1.141,3.047,1.463,4.942,1.554,5.766
			c-0.11,2.998,0.805,5.686,2.6,7.606c1.721,1.844,4.1,2.858,6.694,2.858c0.874,0,1.755-0.117,2.619-0.348
			c2.739-0.733,4.448-2.367,5.415-4.149c1.602,0.805,3.466,1.105,5.515,0.845c2.575-0.328,4.477-1.612,5.701-3.308
			c1.266,0.65,2.672,1,4.088,1c3.27,0,6.151-1.822,7.522-4.753c3.115-6.661-1.431-13.141-2.925-15.27
			c-2.253-3.209-5.011-6.282-8.43-9.399c-4.504-4.101-9.224-5.766-13.763-4.897l1.351-4.342c0.475-0.144,0.949-0.291,1.421-0.443
			l1.447,1.09c0.021,0.017,0.063,0.048,0.084,0.064l1.157,0.862c0.006,0.003,0.011,0.008,0.017,0.013
			c1.031,0.766,2.07,1.537,3.129,2.298c0.036,0.025,0.074,0.052,0.111,0.078c16.698,12.047,48.095,32.433,60.7,32.433
			c3.398,0,5.337-1.381,6.366-2.539c3.31-3.721,3.283-7.947,1.515-12.109c3.156,0.71,5.807,1.068,7.936,1.068
			c3.899,0,6.67-1.205,8.235-3.583c1.589-2.415,2.114-5.185,1.521-8.014c-0.506-2.411-1.796-4.817-3.938-7.294
			c3.175-0.577,6.171-1.923,7.479-4.976c1.233-2.875,1.169-5.911-0.186-8.78C241.586,207.508,236.652,201.688,215.923,194.857z"/>
		<path style="fill:#8B8B8B;" d="M117.327,235.27c-0.729,1.121-1.195,2.36-1.388,3.644c-0.191-1.282-0.657-2.521-1.385-3.643
			c-0.401-0.617-1.357-1.971-2.841-3.354c0.328-0.42,0.591-0.898,0.77-1.42l1.909-5.576c1.306,0.021,2.571,0.016,3.889-0.015
			l1.913,5.592c0.119,0.347,0.274,0.674,0.462,0.978C118.893,233.005,117.77,234.589,117.327,235.27z M215.333,194.226
			c3.33-5.361,5.1-11.66,6.306-15.948l0.395-1.392c2.231-7.752,3.606-15.276,4.157-22.357c0.003-0.035,0.007-0.07,0.01-0.105
			c0.001-0.017,0.002-0.033,0.004-0.049l0.001-0.027c0.001-0.006,0.001-0.013,0.002-0.019l0.032-0.531
			c0.055-0.837,0.098-1.671,0.129-2.509l0.023-0.6c0.026-0.923,0.032-1.842,0.025-2.761l-0.008-0.702
			c-0.015-0.919-0.048-1.831-0.101-2.73l-0.042-0.667c-0.064-0.939-0.143-1.87-0.246-2.787l-0.057-0.444
			c-0.113-0.95-0.249-1.881-0.4-2.767l-0.041-0.253c-0.158-0.893-0.353-1.82-0.594-2.842l-0.111-0.471
			c-0.221-0.889-0.478-1.8-0.765-2.71l-0.159-0.489c-0.312-0.95-0.634-1.821-0.962-2.631c-0.044-0.11-0.092-0.22-0.171-0.405
			c-0.436-1.017-0.84-1.903-1.254-2.701c-0.942-1.819-8.928-16.831-18.665-22.604c-5.397-24.11-16.722-47.826-31.268-65.389
			c-16.73-20.2-36.875-31.325-56.722-31.325c-42.807,0-75.966,49.501-86.026,96.898c-9.599,5.899-17.433,20.638-18.357,22.423
			c-0.421,0.813-0.83,1.694-1.284,2.776l-0.127,0.298c-0.34,0.833-0.657,1.698-0.967,2.638l-0.173,0.534
			c-0.281,0.895-0.535,1.794-0.751,2.664l-0.125,0.525c-0.234,0.986-0.425,1.899-0.586,2.805l-0.051,0.316
			c-0.149,0.877-0.277,1.764-0.387,2.664l-0.064,0.506c-0.102,0.903-0.178,1.816-0.24,2.738l-0.048,0.727
			c-0.05,0.884-0.082,1.773-0.099,2.662l-0.008,0.792c-0.006,0.893,0,1.788,0.025,2.679l0.026,0.7
			c0.029,0.793,0.07,1.588,0.121,2.377l0.036,0.566c0.002,0.036,0.004,0.071,0.007,0.107c0.548,7.116,1.924,14.683,4.168,22.48
			l0.392,1.39c1.962,6.99,5.615,20.004,15.487,24.626c1.829,0.855,4.136,0.423,5.541-1.024c0.949-0.978,3.146-6.165,5.085-11.589
			c0.127,0.043,0.258,0.082,0.393,0.117c0.396,0.102,0.806,0.154,1.216,0.154c1.662,0,2.759-0.621,3.556-1.561
			c10.711,15.234,26.445,26.356,45.301,31.892l1.328,4.273c-1.055-0.279-2.135-0.421-3.222-0.421c-3.835,0-7.67,1.724-11.402,5.122
			c-3.415,3.109-6.172,6.184-8.43,9.4c-1.494,2.129-6.04,8.607-2.924,15.269c1.371,2.932,4.253,4.753,7.521,4.753
			c1.417,0,2.823-0.349,4.088-0.999c1.226,1.695,3.128,2.978,5.703,3.307c2.041,0.261,3.911-0.039,5.514-0.846
			c1.008,1.846,2.774,3.443,5.413,4.15c0.865,0.232,1.746,0.349,2.619,0.349c2.597,0,4.976-1.016,6.697-2.86
			c1.794-1.921,2.71-4.609,2.599-7.607c0.089-0.819,0.41-2.711,1.553-5.764c2.555,0.84,5.552,0.487,7.874-1.023
			c2.062-1.337,3.479-3.396,3.99-5.8c0.041-0.192,0.076-0.387,0.105-0.581c0.028,0.194,0.063,0.389,0.104,0.581
			c0.512,2.402,1.928,4.462,3.986,5.799c2.328,1.511,5.326,1.862,7.879,1.024c1.141,3.047,1.462,4.942,1.554,5.767
			c-0.11,2.997,0.805,5.685,2.599,7.605c1.722,1.844,4.1,2.859,6.695,2.859c0.873,0,1.755-0.117,2.618-0.349
			c2.739-0.733,4.448-2.366,5.416-4.149c1.602,0.805,3.466,1.105,5.515,0.845c2.575-0.328,4.476-1.611,5.701-3.307
			c1.265,0.65,2.672,0.999,4.088,0.999c3.27,0,6.15-1.821,7.522-4.753c3.115-6.661-1.431-13.14-2.926-15.27
			c-2.252-3.209-5.01-6.283-8.43-9.4c-4.503-4.101-9.223-5.766-13.763-4.897l1.352-4.341c0.474-0.145,0.948-0.292,1.421-0.444
			l1.447,1.091c0.021,0.016,0.063,0.048,0.084,0.064l1.156,0.862c0.006,0.004,0.012,0.008,0.018,0.013
			c1.03,0.766,2.076,1.527,3.129,2.298c0.036,0.026,0.073,0.052,0.11,0.078c16.698,12.047,48.096,32.433,60.701,32.433
			c3.396,0,5.337-1.38,6.365-2.538c3.31-3.722,3.283-7.947,1.515-12.11c3.156,0.711,5.807,1.069,7.937,1.069
			c3.898,0,6.67-1.206,8.235-3.584c1.589-2.414,2.114-5.185,1.521-8.014c-0.506-2.411-1.796-4.817-3.938-7.294
			c3.175-0.576,6.17-1.923,7.479-4.976c1.233-2.875,1.169-5.911-0.186-8.78C240.995,206.876,236.062,201.056,215.333,194.226z"/>
		<path style="fill:#7D7D7D;" d="M116.737,234.64c-0.729,1.12-1.196,2.359-1.389,3.643c-0.19-1.282-0.657-2.521-1.385-3.643
			c-0.4-0.617-1.357-1.971-2.841-3.354c0.329-0.42,0.592-0.898,0.771-1.42l1.908-5.576c1.307,0.021,2.572,0.016,3.889-0.015
			l1.914,5.593c0.119,0.346,0.274,0.674,0.462,0.977C118.303,232.373,117.18,233.957,116.737,234.64z M214.743,193.594
			c3.329-5.361,5.1-11.66,6.306-15.948l0.394-1.392c2.232-7.752,3.606-15.275,4.158-22.357c0.003-0.035,0.007-0.07,0.01-0.104
			c0-0.017,0.001-0.032,0.003-0.049l0.001-0.027c0.001-0.006,0.001-0.013,0.002-0.019l0.032-0.531
			c0.056-0.837,0.099-1.67,0.129-2.509l0.022-0.6c0.027-0.923,0.032-1.841,0.026-2.761l-0.008-0.702
			c-0.016-0.919-0.049-1.83-0.101-2.73l-0.043-0.667c-0.063-0.938-0.143-1.87-0.246-2.787l-0.056-0.444
			c-0.113-0.95-0.249-1.881-0.4-2.766l-0.041-0.254c-0.158-0.893-0.352-1.82-0.594-2.842l-0.112-0.471
			c-0.221-0.889-0.478-1.8-0.764-2.71l-0.159-0.489c-0.313-0.95-0.633-1.82-0.962-2.631c-0.045-0.11-0.092-0.22-0.172-0.405
			c-0.436-1.017-0.839-1.903-1.253-2.7c-0.942-1.82-8.928-16.832-18.666-22.605c-5.398-24.11-16.721-47.826-31.267-65.389
			c-16.732-20.2-36.876-31.324-56.722-31.324c-42.807,0-75.966,49.5-86.027,96.896c-9.599,5.899-17.433,20.638-18.356,22.423
			c-0.421,0.813-0.83,1.694-1.285,2.776l-0.127,0.298c-0.34,0.833-0.657,1.698-0.966,2.638l-0.173,0.534
			c-0.282,0.895-0.535,1.795-0.752,2.664l-0.125,0.525c-0.233,0.986-0.424,1.899-0.585,2.805l-0.052,0.316
			c-0.15,0.877-0.277,1.764-0.386,2.664l-0.064,0.506c-0.102,0.903-0.179,1.817-0.241,2.738l-0.047,0.727
			c-0.051,0.884-0.083,1.773-0.099,2.662l-0.009,0.792c-0.006,0.893,0,1.789,0.025,2.679l0.027,0.701
			c0.029,0.792,0.069,1.587,0.121,2.376l0.036,0.566c0.002,0.036,0.004,0.072,0.006,0.106c0.558,7.115,1.924,14.683,4.168,22.48
			l0.394,1.39c1.962,6.99,5.615,20.005,15.486,24.626c1.83,0.854,4.137,0.423,5.542-1.024c0.949-0.978,3.146-6.165,5.085-11.589
			c0.127,0.043,0.258,0.082,0.393,0.117c0.396,0.102,0.806,0.154,1.216,0.154c1.661,0,2.759-0.621,3.555-1.561
			c10.711,15.234,26.446,26.356,45.302,31.893l1.328,4.272c-1.055-0.28-2.136-0.422-3.222-0.422c-3.835,0-7.67,1.724-11.402,5.122
			c-3.415,3.109-6.173,6.186-8.43,9.4c-1.494,2.129-6.04,8.607-2.925,15.269c1.372,2.933,4.254,4.753,7.523,4.753
			c1.416,0,2.823-0.349,4.088-0.999c1.226,1.695,3.128,2.978,5.703,3.307c2.04,0.261,3.91-0.039,5.513-0.846
			c1.009,1.846,2.774,3.443,5.414,4.15c0.865,0.232,1.746,0.349,2.619,0.349c2.597,0,4.976-1.016,6.697-2.86
			c1.794-1.92,2.709-4.608,2.599-7.607c0.089-0.819,0.41-2.711,1.553-5.764c2.555,0.84,5.552,0.487,7.874-1.023
			c2.062-1.337,3.479-3.396,3.99-5.8c0.04-0.192,0.075-0.387,0.104-0.581c0.029,0.194,0.063,0.389,0.104,0.581
			c0.512,2.402,1.928,4.462,3.986,5.799c2.327,1.511,5.325,1.862,7.878,1.024c1.141,3.047,1.463,4.942,1.554,5.767
			c-0.109,2.997,0.806,5.685,2.6,7.605c1.721,1.844,4.1,2.859,6.695,2.859c0.873,0,1.754-0.117,2.618-0.349
			c2.739-0.733,4.448-2.366,5.415-4.149c1.602,0.805,3.467,1.105,5.516,0.845c2.574-0.328,4.476-1.611,5.7-3.307
			c1.266,0.65,2.673,0.999,4.089,0.999c3.268,0,6.15-1.82,7.522-4.753c3.115-6.661-1.431-13.14-2.926-15.27
			c-2.253-3.209-5.01-6.283-8.43-9.4c-4.503-4.101-9.224-5.766-13.763-4.898l1.35-4.341c0.475-0.145,0.949-0.292,1.421-0.444
			l1.447,1.091c0.021,0.017,0.063,0.048,0.085,0.063l1.156,0.862c0.006,0.004,0.012,0.008,0.018,0.013
			c1.03,0.766,2.076,1.527,3.128,2.298c0.036,0.026,0.074,0.052,0.111,0.078c16.698,12.048,48.096,32.433,60.701,32.433
			c3.396,0,5.337-1.379,6.365-2.538c3.309-3.722,3.283-7.947,1.515-12.11c3.156,0.711,5.807,1.07,7.936,1.07
			c3.898,0,6.669-1.207,8.235-3.585c1.588-2.414,2.114-5.185,1.521-8.014c-0.506-2.411-1.797-4.817-3.939-7.294
			c3.176-0.576,6.171-1.923,7.48-4.976c1.233-2.875,1.169-5.911-0.186-8.78C240.405,206.244,235.472,200.424,214.743,193.594z"/>
		<path style="fill:#6E6E6E;" d="M116.146,234.008c-0.729,1.121-1.195,2.36-1.388,3.644c-0.191-1.282-0.657-2.521-1.385-3.644
			c-0.4-0.616-1.357-1.97-2.841-3.354c0.329-0.419,0.591-0.897,0.77-1.419l1.908-5.576c1.307,0.02,2.572,0.015,3.889-0.016
			l1.913,5.593c0.12,0.346,0.275,0.674,0.463,0.978C117.713,231.742,116.589,233.326,116.146,234.008z M214.152,192.963
			c3.33-5.361,5.101-11.66,6.307-15.949l0.393-1.391c2.232-7.752,3.599-15.276,4.158-22.358c0.002-0.034,0.006-0.069,0.009-0.104
			c0.001-0.016,0.002-0.032,0.004-0.048l0.001-0.028c0.001-0.006,0.001-0.012,0.002-0.019l0.032-0.531
			c0.055-0.836,0.099-1.67,0.129-2.509l0.022-0.599c0.026-0.924,0.032-1.842,0.025-2.761l-0.007-0.702
			c-0.016-0.92-0.049-1.831-0.101-2.73l-0.043-0.668c-0.063-0.938-0.143-1.869-0.246-2.786l-0.056-0.445
			c-0.114-0.95-0.249-1.88-0.401-2.766l-0.04-0.253c-0.158-0.893-0.353-1.82-0.595-2.842l-0.111-0.471
			c-0.221-0.89-0.478-1.8-0.765-2.71l-0.159-0.489c-0.312-0.951-0.631-1.822-0.961-2.632c-0.045-0.109-0.091-0.219-0.172-0.405
			c-0.437-1.017-0.839-1.902-1.252-2.7c-0.943-1.82-8.929-16.831-18.667-22.604c-5.397-24.11-16.721-47.826-31.268-65.39
			c-16.73-20.199-36.875-31.324-56.721-31.324c-42.808,0-75.967,49.501-86.027,96.896c-9.599,5.899-17.433,20.639-18.357,22.423
			c-0.42,0.813-0.829,1.695-1.284,2.777l-0.127,0.297c-0.34,0.833-0.657,1.698-0.966,2.638l-0.174,0.535
			c-0.281,0.895-0.535,1.794-0.751,2.663l-0.125,0.526c-0.234,0.985-0.425,1.899-0.585,2.805l-0.052,0.315
			c-0.149,0.877-0.277,1.764-0.387,2.665l-0.064,0.506c-0.101,0.902-0.178,1.816-0.24,2.737l-0.047,0.728
			c-0.051,0.884-0.083,1.772-0.099,2.662l-0.009,0.792c-0.006,0.892,0,1.788,0.025,2.679l0.026,0.7
			c0.029,0.793,0.07,1.587,0.121,2.377l0.036,0.566c0.002,0.037,0.004,0.072,0.007,0.106c0.557,7.116,1.924,14.684,4.168,22.481
			l0.394,1.389c1.962,6.99,5.615,20.005,15.486,24.627c1.829,0.854,4.136,0.422,5.542-1.025c0.949-0.978,3.145-6.164,5.085-11.589
			c0.127,0.043,0.257,0.083,0.392,0.117c0.397,0.102,0.807,0.154,1.217,0.154c1.661,0,2.758-0.62,3.555-1.561
			c10.711,15.234,26.446,26.356,45.301,31.893l1.328,4.273c-1.054-0.28-2.135-0.421-3.222-0.421c-3.834,0-7.67,1.724-11.401,5.121
			c-3.415,3.11-6.173,6.186-8.431,9.4c-1.493,2.13-6.039,8.607-2.924,15.269c1.372,2.932,4.253,4.753,7.522,4.753
			c1.416,0,2.822-0.35,4.087-0.999c1.227,1.695,3.128,2.978,5.704,3.306c2.04,0.261,3.91-0.038,5.513-0.846
			c1.008,1.846,2.773,3.444,5.414,4.15c0.864,0.232,1.745,0.35,2.619,0.35c2.597,0,4.975-1.017,6.697-2.861
			c1.794-1.92,2.709-4.608,2.598-7.608c0.09-0.818,0.41-2.711,1.553-5.764c2.555,0.841,5.552,0.488,7.875-1.022
			c2.062-1.337,3.479-3.397,3.989-5.801c0.041-0.191,0.076-0.387,0.105-0.58c0.028,0.193,0.064,0.389,0.105,0.58
			c0.512,2.403,1.928,4.463,3.986,5.8c2.327,1.511,5.325,1.862,7.878,1.023c1.141,3.048,1.463,4.942,1.554,5.768
			c-0.11,2.996,0.805,5.684,2.6,7.605c1.721,1.843,4.1,2.859,6.695,2.859c0.873,0,1.754-0.117,2.618-0.35
			c2.739-0.732,4.448-2.366,5.415-4.149c1.602,0.806,3.466,1.105,5.515,0.845c2.575-0.327,4.477-1.61,5.701-3.306
			c1.266,0.649,2.672,0.999,4.088,0.999c3.27,0,6.151-1.821,7.522-4.753c3.116-6.662-1.431-13.14-2.925-15.27
			c-2.253-3.209-5.01-6.283-8.43-9.4c-4.504-4.1-9.224-5.765-13.763-4.897l1.351-4.34c0.475-0.145,0.949-0.292,1.421-0.444
			l1.447,1.091c0.02,0.016,0.063,0.047,0.084,0.063l1.157,0.861c0.006,0.005,0.011,0.008,0.017,0.014
			c1.031,0.765,2.083,1.518,3.129,2.297c0.036,0.027,0.074,0.052,0.111,0.079c16.597,12.186,48.095,32.432,60.7,32.432
			c3.397,0,5.337-1.379,6.366-2.537c3.31-3.722,3.283-7.947,1.515-12.111c3.156,0.712,5.807,1.07,7.936,1.07
			c3.899,0,6.67-1.207,8.235-3.585c1.589-2.414,2.115-5.184,1.521-8.013c-0.506-2.411-1.796-4.817-3.939-7.294
			c3.175-0.577,6.171-1.923,7.48-4.977c1.233-2.874,1.169-5.911-0.186-8.779C239.815,205.613,234.882,199.793,214.152,192.963z"/>
		<path style="fill:#606060;" d="M115.557,233.376c-0.729,1.121-1.195,2.36-1.388,3.643c-0.191-1.282-0.657-2.521-1.385-3.643
			c-0.401-0.617-1.358-1.971-2.841-3.354c0.328-0.42,0.591-0.899,0.77-1.42l1.909-5.576c1.306,0.021,2.571,0.016,3.889-0.015
			l1.913,5.592c0.119,0.347,0.274,0.674,0.462,0.978C117.122,231.11,115.999,232.694,115.557,233.376z M213.563,192.331
			c3.33-5.361,5.101-11.66,6.306-15.948l0.395-1.392c2.231-7.752,3.63-15.274,4.157-22.357c0.003-0.035,0.007-0.07,0.01-0.105
			c0.001-0.017,0.002-0.033,0.004-0.049l0.001-0.027c0.001-0.006,0.001-0.013,0.002-0.018l0.032-0.531
			c0.055-0.837,0.099-1.671,0.129-2.509l0.022-0.6c0.026-0.923,0.032-1.842,0.025-2.761l-0.008-0.702
			c-0.015-0.919-0.048-1.831-0.101-2.73l-0.042-0.667c-0.063-0.939-0.144-1.87-0.246-2.787l-0.057-0.444
			c-0.113-0.95-0.249-1.881-0.4-2.767l-0.041-0.253c-0.158-0.893-0.352-1.82-0.594-2.842l-0.111-0.471
			c-0.221-0.889-0.478-1.8-0.765-2.71l-0.159-0.489c-0.312-0.95-0.631-1.821-0.962-2.631c-0.044-0.11-0.091-0.221-0.171-0.405
			c-0.43-1.019-0.84-1.903-1.253-2.701c-0.943-1.819-8.929-16.831-18.666-22.604c-5.398-24.11-16.722-47.826-31.268-65.389
			c-16.73-20.2-36.875-31.325-56.722-31.325c-42.807,0-75.966,49.501-86.026,96.897c-9.599,5.899-17.433,20.638-18.357,22.423
			c-0.421,0.813-0.83,1.694-1.284,2.776l-0.127,0.298c-0.34,0.833-0.657,1.698-0.967,2.638l-0.173,0.534
			c-0.281,0.895-0.535,1.794-0.751,2.664l-0.125,0.525c-0.234,0.986-0.425,1.899-0.586,2.805l-0.051,0.316
			c-0.149,0.877-0.277,1.764-0.387,2.664l-0.065,0.506c-0.102,0.903-0.178,1.816-0.24,2.738l-0.048,0.727
			c-0.05,0.884-0.082,1.773-0.099,2.662l-0.008,0.792c-0.006,0.893,0,1.788,0.025,2.679l0.026,0.7
			c0.029,0.793,0.07,1.588,0.121,2.377l0.036,0.566c0.002,0.036,0.004,0.071,0.007,0.106c0.521,7.118,1.924,14.683,4.168,22.48
			l0.392,1.39c1.962,6.99,5.616,20.004,15.487,24.626c1.829,0.854,4.136,0.423,5.541-1.024c0.949-0.978,3.146-6.165,5.085-11.589
			c0.127,0.043,0.258,0.082,0.393,0.117c0.396,0.102,0.806,0.154,1.216,0.154c1.662,0,2.759-0.621,3.556-1.56
			c10.711,15.234,26.445,26.355,45.301,31.892l1.328,4.273c-1.055-0.279-2.135-0.421-3.222-0.421c-3.834,0-7.67,1.724-11.402,5.122
			c-3.415,3.109-6.172,6.185-8.43,9.4c-1.494,2.129-6.04,8.607-2.924,15.269c1.371,2.932,4.253,4.753,7.522,4.753
			c1.416,0,2.822-0.349,4.087-0.999c1.226,1.695,3.128,2.978,5.703,3.307c2.041,0.261,3.911-0.039,5.514-0.846
			c1.008,1.846,2.774,3.443,5.413,4.15c0.865,0.232,1.746,0.349,2.619,0.349c2.597,0,4.976-1.016,6.697-2.86
			c1.795-1.921,2.71-4.609,2.599-7.607c0.089-0.819,0.41-2.711,1.553-5.764c2.555,0.84,5.552,0.487,7.875-1.023
			c2.06-1.337,3.477-3.396,3.989-5.8c0.041-0.192,0.076-0.387,0.105-0.581c0.028,0.194,0.063,0.389,0.104,0.581
			c0.511,2.402,1.927,4.462,3.985,5.799c2.328,1.511,5.326,1.862,7.879,1.024c1.141,3.047,1.462,4.942,1.554,5.767
			c-0.11,2.997,0.805,5.685,2.599,7.605c1.722,1.844,4.1,2.859,6.695,2.859c0.874,0,1.755-0.117,2.618-0.349
			c2.74-0.733,4.448-2.366,5.416-4.149c1.602,0.805,3.466,1.105,5.515,0.845c2.575-0.328,4.476-1.611,5.701-3.307
			c1.266,0.65,2.672,0.999,4.088,0.999c3.27,0,6.15-1.821,7.523-4.753c3.115-6.661-1.431-13.14-2.925-15.27
			c-2.253-3.209-5.011-6.283-8.431-9.4c-4.503-4.101-9.223-5.766-13.763-4.897l1.352-4.341c0.475-0.145,0.949-0.292,1.421-0.444
			l1.447,1.091c0.02,0.016,0.062,0.048,0.084,0.063l1.156,0.862c0.006,0.004,0.012,0.008,0.018,0.013
			c1.03,0.766,2.073,1.531,3.129,2.298c0.036,0.026,0.073,0.052,0.11,0.078c16.671,12.085,48.096,32.433,60.701,32.433
			c3.396,0,5.337-1.38,6.365-2.538c3.31-3.722,3.283-7.947,1.515-12.11c3.156,0.711,5.807,1.069,7.937,1.069
			c3.899,0,6.67-1.206,8.235-3.584c1.589-2.414,2.114-5.185,1.521-8.014c-0.506-2.411-1.796-4.817-3.939-7.294
			c3.175-0.576,6.17-1.923,7.48-4.976c1.233-2.875,1.169-5.911-0.186-8.78C239.225,204.982,234.292,199.161,213.563,192.331z"/>
	</g>
	<path style="fill:#FFFFFF;" d="M213.563,192.331c3.33-5.361,5.101-11.66,6.306-15.948l0.395-1.392
		c2.231-7.752,3.63-15.274,4.157-22.357c0.003-0.035,0.007-0.07,0.01-0.105c0.001-0.017,0.002-0.033,0.004-0.049l0.001-0.027
		c0.001-0.006,0.001-0.013,0.002-0.018l0.032-0.531c0.055-0.837,0.099-1.671,0.129-2.509l0.022-0.6
		c0.026-0.923,0.032-1.842,0.025-2.761l-0.008-0.702c-0.015-0.919-0.048-1.831-0.101-2.73l-0.042-0.667
		c-0.063-0.939-0.144-1.87-0.246-2.787l-0.057-0.444c-0.113-0.95-0.249-1.881-0.4-2.767l-0.041-0.253
		c-0.158-0.893-0.352-1.82-0.594-2.842l-0.111-0.471c-0.221-0.889-0.478-1.8-0.765-2.71l-0.159-0.489
		c-0.312-0.95-0.631-1.821-0.962-2.631c-0.044-0.11-0.091-0.221-0.171-0.405c-0.43-1.019-0.84-1.903-1.253-2.701
		c-0.943-1.819-8.929-16.831-18.666-22.604c-5.398-24.11-16.722-47.826-31.268-65.389c-16.73-20.2-36.875-31.325-56.722-31.325
		c-42.807,0-75.966,49.501-86.026,96.897c-9.599,5.899-17.433,20.638-18.357,22.423c-0.421,0.813-0.83,1.694-1.284,2.776
		l-0.127,0.298c-0.34,0.833-0.657,1.698-0.967,2.638l-0.173,0.534c-0.281,0.895-0.535,1.794-0.751,2.664l-0.125,0.525
		c-0.234,0.986-0.425,1.899-0.586,2.805l-0.051,0.316c-0.149,0.877-0.277,1.764-0.387,2.664l-0.065,0.506
		c-0.102,0.903-0.178,1.816-0.24,2.738l-0.048,0.727c-0.05,0.884-0.082,1.773-0.099,2.662l-0.008,0.792
		c-0.006,0.893,0,1.788,0.025,2.679l0.026,0.7c0.029,0.793,0.07,1.588,0.121,2.377l0.036,0.566c0.002,0.036,0.004,0.071,0.007,0.106
		c0.521,7.118,1.924,14.683,4.168,22.48l0.392,1.39c1.962,6.99,5.616,20.004,15.487,24.626c1.829,0.854,4.136,0.423,5.541-1.024
		c0.949-0.978,3.146-6.165,5.085-11.589c0.127,0.043,0.258,0.082,0.393,0.117c0.396,0.102,0.806,0.154,1.216,0.154
		c1.662,0,2.759-0.621,3.556-1.56c10.711,15.234,26.445,26.355,45.301,31.892l1.328,4.273c-1.055-0.279-2.135-0.421-3.222-0.421
		c-3.834,0-7.67,1.724-11.402,5.122c-3.415,3.109-6.172,6.185-8.43,9.4c-1.494,2.129-6.04,8.607-2.924,15.269
		c1.371,2.932,4.253,4.753,7.522,4.753c1.416,0,2.822-0.349,4.087-0.999c1.226,1.695,3.128,2.978,5.703,3.307
		c2.041,0.261,3.911-0.039,5.514-0.846c1.008,1.846,2.774,3.443,5.413,4.15c0.865,0.232,1.746,0.349,2.619,0.349
		c2.597,0,4.976-1.016,6.697-2.86c1.795-1.921,2.71-4.609,2.599-7.607c0.089-0.819,0.41-2.711,1.553-5.764
		c2.555,0.84,5.552,0.487,7.875-1.023c2.06-1.337,3.477-3.396,3.989-5.8c0.041-0.192,0.076-0.387,0.105-0.581
		c0.028,0.194,0.063,0.389,0.104,0.581c0.511,2.402,1.927,4.462,3.985,5.799c2.328,1.511,5.326,1.862,7.879,1.024
		c1.141,3.047,1.462,4.942,1.554,5.767c-0.11,2.997,0.805,5.685,2.599,7.605c1.722,1.844,4.1,2.859,6.695,2.859
		c0.874,0,1.755-0.117,2.618-0.349c2.74-0.733,4.448-2.366,5.416-4.149c1.602,0.805,3.466,1.105,5.515,0.845
		c2.575-0.328,4.476-1.611,5.701-3.307c1.266,0.65,2.672,0.999,4.088,0.999c3.27,0,6.15-1.821,7.523-4.753
		c3.115-6.661-1.431-13.14-2.925-15.27c-2.253-3.209-5.011-6.283-8.431-9.4c-4.503-4.101-9.223-5.766-13.763-4.897l1.352-4.341
		c0.475-0.145,0.949-0.292,1.421-0.444l1.447,1.091c0.02,0.016,0.062,0.048,0.084,0.063l1.156,0.862
		c0.006,0.004,0.012,0.008,0.018,0.013c1.03,0.766,2.073,1.531,3.129,2.298c0.036,0.026,0.073,0.052,0.11,0.078
		c16.671,12.085,48.096,32.433,60.701,32.433c3.396,0,5.337-1.38,6.365-2.538c3.31-3.722,3.283-7.947,1.515-12.11
		c3.156,0.711,5.807,1.069,7.937,1.069c3.899,0,6.67-1.206,8.235-3.584c1.589-2.414,2.114-5.185,1.521-8.014
		c-0.506-2.411-1.796-4.817-3.939-7.294c3.175-0.576,6.17-1.923,7.48-4.976c1.233-2.875,1.169-5.911-0.186-8.78
		C239.225,204.982,234.292,199.161,213.563,192.331z M115.557,233.376c-0.729,1.121-1.195,2.36-1.388,3.643
		c-0.191-1.282-0.657-2.521-1.385-3.643c-0.401-0.617-1.358-1.971-2.841-3.354c0.328-0.42,0.591-0.899,0.77-1.42l1.909-5.576
		c1.306,0.021,2.571,0.016,3.889-0.015l1.913,5.592c0.119,0.347,0.274,0.674,0.462,0.978
		C117.122,231.11,115.999,232.694,115.557,233.376z"/>
	<g>
		<g>
			<g>
				<g>
					<path style="fill:#182651;" d="M102.683,234.262v-24.817c0-2.462-1.997-4.458-4.46-4.458c-2.461,0-4.458,1.996-4.458,4.458
						v23.366C94.926,236.505,99.305,236.041,102.683,234.262z"/>
				</g>
				<path style="fill:#182651;" d="M92.003,236.44c-0.191-1.099-1.383-6.658-6.218-8.315c-3.331-1.143-6.919,0.013-10.672,3.43
					c-2.866,2.611-5.498,5.428-7.727,8.602c-2.036,2.902-4.19,6.814-2.5,10.428c1.036,2.216,3.802,2.514,5.649,1.08
					c2.101-1.629,2.665-4.668,4.156-6.808c1.773-2.545,3.984-4.792,6.271-6.873c0.947-0.864,1.598-1.261,1.973-1.439
					c0.205,0.378,0.419,0.954,0.508,1.411c0.425,2.347,2.669,3.912,5.017,3.508C90.826,241.054,92.41,238.805,92.003,236.44z"/>
				<path style="fill:#314A82;" d="M99.791,236.005c-0.436-1.025-2.866-6.165-7.953-6.675c-3.491-0.357-6.731,1.593-9.605,5.779
					c-6.547,9.534-6.921,14.796-6.928,15.753c0,0-0.311,3.59,3.112,4.025c3.001,0.381,4.48-1.439,5.577-3.964
					c0.004,0.052,0.002,0.103-0.003,0.154c0.729-3.986,3.154-7.766,5.406-11.049c0.724-1.058,1.268-1.592,1.592-1.852
					c0.284,0.32,0.625,0.834,0.816,1.259c0.949,2.188,3.49,3.202,5.686,2.268C99.7,240.767,100.729,238.213,99.791,236.005z"/>
				<path style="fill:#182651;" d="M108.717,236.019c-0.606-0.934-3.895-5.595-8.986-5.198c-3.511,0.259-6.358,2.732-8.463,7.354
					c-4.477,9.816-4.305,15.035-4.134,16.46l0,0c0,0-0.188,2.871,2.854,3.686c3.04,0.814,6.103-1.085,5.799-5.528
					c0.11-1.499,0.681-5.068,3.39-11.012c0.53-1.167,0.974-1.787,1.246-2.097c0.336,0.265,0.76,0.71,1.021,1.094
					c1.314,1.99,3.99,2.553,5.992,1.253C109.449,240.723,110.021,238.03,108.717,236.019z"/>
			</g>
			<g>
				<g>
					<path style="fill:#182651;" d="M125.657,234.262v-24.817c0-2.462,1.995-4.458,4.458-4.458c2.463,0,4.458,1.996,4.458,4.458
						v23.366C133.411,236.505,129.035,236.041,125.657,234.262z"/>
				</g>
				<path style="fill:#182651;" d="M136.337,236.44c0.189-1.099,1.381-6.658,6.216-8.315c3.33-1.143,6.921,0.013,10.674,3.43
					c2.864,2.611,5.498,5.428,7.726,8.602c2.037,2.902,4.191,6.814,2.501,10.428c-1.036,2.216-3.803,2.514-5.649,1.08
					c-2.102-1.629-2.666-4.668-4.156-6.808c-1.773-2.545-3.984-4.792-6.273-6.873c-0.947-0.864-1.597-1.261-1.97-1.439
					c-0.205,0.378-0.421,0.954-0.51,1.411c-0.425,2.347-2.67,3.912-5.017,3.508C137.514,241.054,135.928,238.805,136.337,236.44z"/>
				<path style="fill:#314A82;" d="M128.548,236.005c0.437-1.025,2.867-6.165,7.952-6.675c3.493-0.357,6.732,1.593,9.606,5.779
					c6.548,9.534,6.919,14.796,6.929,15.753c0,0,0.309,3.59-3.112,4.025c-3.003,0.381-4.482-1.439-5.578-3.964
					c-0.004,0.052-0.004,0.103,0.004,0.154c-0.731-3.986-3.156-7.766-5.407-11.049c-0.726-1.058-1.268-1.592-1.591-1.852
					c-0.286,0.32-0.625,0.834-0.816,1.259c-0.951,2.188-3.49,3.202-5.686,2.268C128.64,240.767,127.608,238.213,128.548,236.005z"/>
				<path style="fill:#182651;" d="M119.623,236.019c0.606-0.934,3.896-5.595,8.986-5.198c3.508,0.259,6.355,2.732,8.463,7.354
					c4.475,9.816,4.304,15.035,4.132,16.46h0.002c0,0,0.188,2.871-2.855,3.686c-3.039,0.814-6.103-1.085-5.797-5.528
					c-0.112-1.499-0.681-5.068-3.39-11.012c-0.532-1.167-0.974-1.787-1.248-2.097c-0.336,0.265-0.76,0.71-1.021,1.094
					c-1.313,1.99-3.99,2.553-5.992,1.253C118.89,240.723,118.316,238.03,119.623,236.019z"/>
			</g>
		</g>
		<path style="fill:#2B2B2B;" d="M87.718,210.946l4.35,13.983l3.227-4.634l3.88,5.604l3.509-4.688l3.442,5.82
			c0,0,4.041-11.803,4.203-12.287C110.489,214.26,87.718,210.946,87.718,210.946z"/>
		<path style="fill:#2B2B2B;" d="M141.422,210.946l-4.35,13.983l-3.227-4.634l-3.88,5.604l-3.509-4.688l-3.444,5.82
			c0,0-4.041-11.803-4.202-12.287C118.647,214.26,141.422,210.946,141.422,210.946z"/>
		<g>
			<g>
				<path style="fill:#2B2B2B;" d="M133.473,186.011c0,0,95.721,47.264,81.415,63.353C205.468,259.96,84.4,174.303,133.473,186.011z
					"/>
				<path style="fill:#2B2B2B;" d="M139.531,181.402c0,0,105.758,14.577,97.273,34.363
					C231.213,228.799,89.276,185.808,139.531,181.402z"/>
				<path style="fill:#545454;" d="M142.448,184.337c0,0,101.536,32.972,89.698,50.958
					C224.351,247.138,92.205,179.824,142.448,184.337z"/>
			</g>
			<g>
				<path style="fill:#CE6B00;" d="M180.024,211.956c-22.275-13.955-46.552-25.945-46.552-25.945
					c-25.158-6.002-5.597,13.586,20.711,32.677C162.679,216.021,171.314,213.807,180.024,211.956z"/>
				<path style="fill:#CE6B00;" d="M182.753,189.192c-22.412-4.919-43.222-7.79-43.222-7.79
					c-30.292,2.656,9.245,19.33,46.662,29.305c1.08-0.209,2.156-0.426,3.235-0.625c0.183-0.032,0.36-0.062,0.54-0.093
					C187.093,203.199,184.615,196.273,182.753,189.192z"/>
				<path style="fill:#FF900B;" d="M186.353,200.757c-22.18-9.364-43.904-16.42-43.904-16.42c-26.201-2.354-2.8,14.827,26.7,30.128
					c6.71-1.685,13.48-3.137,20.28-4.383c0.183-0.032,0.36-0.062,0.54-0.093C188.677,206.939,187.467,203.862,186.353,200.757z"/>
			</g>
		</g>
		<path style="fill:#333333;" d="M199.773,131.609c0,55.595-38.326,86.579-85.605,86.579c-47.276,0-85.602-30.984-85.602-86.579
			c0-55.594,37.237-122.643,84.515-122.643C160.357,8.967,199.773,76.016,199.773,131.609z"/>
		<g>
			<path style="fill:#FFCF03;" d="M153.317,85.841c5.043-14.219,2.977-33.052,2.977-33.052
				c-3.656-27.283-31.118-29.068-41.767-28.72c-10.647-0.349-38.111,1.437-41.766,28.72c0,0-2.068,18.833,2.977,33.052
				C75.738,85.841,102.868,62.512,153.317,85.841z"/>
			<path style="fill:#FFCF03;" d="M157.82,89.573c-1.394-1.404-2.895-2.698-4.503-3.732c-50.449-23.329-77.579,0-77.579,0
				c-1.608,1.034-3.109,2.328-4.505,3.732c-5.806,5.845-10.288,14.195-10.752,23.44c-0.349,6.913-0.061,14.434,1.44,21.146
				c1.714,7.663,4.836,14.91,9.133,20.947c22.799,32.037,64.045,32.166,86.946,0c4.295-6.037,7.419-13.284,9.132-20.947
				c1.5-6.713,1.79-14.233,1.441-21.146C168.108,103.769,163.628,95.418,157.82,89.573z"/>
		</g>
		<g>
			<path style="fill:#FFFFFF;" d="M140.912,30.799c0,4.865-3.944,8.812-8.81,8.812c-4.867,0-8.811-3.946-8.811-8.812
				c0-4.867,3.944-8.811,8.811-8.811C136.968,21.987,140.912,25.932,140.912,30.799z"/>
			<path style="fill:#FFFFFF;" d="M105.049,30.799c0,4.865-3.944,8.812-8.81,8.812c-4.867,0-8.812-3.946-8.812-8.812
				c0-4.867,3.944-8.811,8.812-8.811C101.104,21.987,105.049,25.932,105.049,30.799z"/>
			<g>
				<g>
					<path style="fill:#151A23;" d="M102.463,30.799c0,3.437-2.787,6.224-6.226,6.224c-3.436,0-6.224-2.787-6.224-6.224
						c0-3.438,2.787-6.226,6.224-6.226C99.676,24.573,102.463,27.36,102.463,30.799z"/>
					<path style="fill:#FFFFFF;" d="M95.794,28.859c0,1.07-0.868,1.939-1.94,1.939c-1.07,0-1.939-0.869-1.939-1.939
						c0-1.072,0.869-1.94,1.939-1.94C94.926,26.919,95.794,27.787,95.794,28.859z"/>
					<path style="fill:#FFFFFF;" d="M93.611,32.939c0,0.471-0.381,0.85-0.849,0.85c-0.468,0-0.849-0.379-0.849-0.85
						c0-0.468,0.381-0.849,0.849-0.849C93.23,32.091,93.611,32.472,93.611,32.939z"/>
				</g>
				<g>
					<path style="fill:#151A23;" d="M138.326,30.799c0,3.437-2.787,6.224-6.224,6.224c-3.438,0-6.226-2.787-6.226-6.224
						c0-3.438,2.787-6.226,6.226-6.226C135.539,24.573,138.326,27.36,138.326,30.799z"/>
					<path style="fill:#FFFFFF;" d="M131.659,28.859c0,1.07-0.87,1.939-1.941,1.939c-1.072,0-1.939-0.869-1.939-1.939
						c0-1.072,0.867-1.94,1.939-1.94C130.789,26.919,131.659,27.787,131.659,28.859z"/>
					<path style="fill:#FFFFFF;" d="M129.477,32.939c0,0.471-0.381,0.85-0.849,0.85c-0.47,0-0.849-0.379-0.849-0.85
						c0-0.468,0.379-0.849,0.849-0.849C129.096,32.091,129.477,32.472,129.477,32.939z"/>
				</g>
			</g>
		</g>
		<g>
			<path style="fill:#2B2B2B;" d="M54.715,137.739c-0.313-8.506-9.801-30.109-16.976-33.703c-8.186-4.1-19.644,11.797-24.734,21.63
				c-6.879,13.281-4.642,32.456-0.173,47.983c1.775,6.169,4.813,19.002,13.268,22.961c0.222,0.104,7.373-17.566,7.275-21.041
				c0.636,0.933,1.498,7.88,2.909,8.245c0.254,0.064,5.769-16.45,5.481-17.762c0.485,0.624,0.417,6.641,0.536,6.573
				C50.592,167.81,55.074,147.602,54.715,137.739z"/>
		</g>
		<g>
			<path style="fill:#545454;" d="M10.324,161.63c1.365,6.2,3.385,12.632,7.551,17.551c1.914-6.104,2.702-12.454,3.843-18.733
				c0.107-0.589,1.051,9.234,1.832,13.724c8.504-6.889,8.691-19.17,11.263-29.001c0.135-0.514,0.877,7.624,1.154,11.475
				c10.393-8.932,14.425-24.433,12.418-38.449c-3.237-6.571-7.207-12.435-10.645-14.159c-8.186-4.1-19.644,11.797-24.734,21.63
				c-3.894,7.518-4.863,16.924-4.164,26.487C9.151,155.343,9.636,158.515,10.324,161.63z"/>
		</g>
		<g>
			<g>
				<path style="fill:#2B2B2B;" d="M173.718,137.739c0.311-8.506,9.799-30.109,16.977-33.703c8.185-4.1,19.643,11.797,24.735,21.63
					c6.877,13.281,4.642,32.456,0.172,47.983c-1.776,6.169-4.813,19.002-13.269,22.961c-0.22,0.104-7.374-17.566-7.273-21.041
					c-0.639,0.933-1.5,7.88-2.91,8.245c-0.256,0.064-5.771-16.45-5.48-17.762c-0.485,0.624-0.419,6.641-0.536,6.573
					C177.84,167.81,173.357,147.602,173.718,137.739z"/>
			</g>
			<g>
				<path style="fill:#545454;" d="M218.11,161.63c-1.366,6.2-3.386,12.632-7.552,17.551c-1.915-6.104-2.703-12.454-3.842-18.733
					c-0.108-0.589-1.052,9.234-1.832,13.724c-8.507-6.889-8.694-19.17-11.263-29.001c-0.135-0.514-0.88,7.624-1.156,11.475
					c-10.394-8.932-14.427-24.433-12.419-38.449c3.236-6.571,7.207-12.435,10.647-14.159c8.185-4.1,19.643,11.797,24.735,21.63
					c3.894,7.518,4.863,16.924,4.164,26.487C219.281,155.343,218.796,158.515,218.11,161.63z"/>
			</g>
		</g>
		<g>
			<path style="fill:#7DA804;" d="M140.717,61.873l11.339,0.256c0,0,4.138,23.47-7.114,29.524
				c-11.249,6.053-70.814,31.775-73.42,33.632c-2.605,1.856-2.692-21.062,7.637-30.552C89.488,85.244,140.717,61.873,140.717,61.873
				z"/>
			<path style="fill:#3F2112;" d="M139.183,78.736c-2.35,5.483-3.708,11.542-3.873,17.599c4.293-1.999,7.686-3.634,9.632-4.682
				c10.738-5.778,7.463-27.4,7.141-29.365C147.285,67.401,142.026,72.098,139.183,78.736z"/>
			<g>
				<path style="fill:#FF900B;" d="M108.173,79.312c-15.93,9.413-25.099,23.862-28.726,30.586c3.281-3.605,7.2-6.479,11.575-8.906
					c11.452-6.359,23.519-11.563,35.005-17.848C134.645,78.479,129.388,66.776,108.173,79.312z"/>
				<path style="fill:#B1E510;" d="M149.216,53.071c-12.012-20.292-43.211-24.61-62.537-12.754
					c-6.915,4.243-13.93,10.39-19.153,16.594c-7.673,9.113-13.671,20.329-15.063,32.295c-2.203,18.93,6.639,36.797,18.887,51.066
					c-1.336-8.626-0.526-17.606,4.162-25.199c1.169-1.892,2.497-3.598,3.936-5.176c3.628-6.724,12.797-21.173,28.726-30.586
					c21.215-12.535,26.472-0.833,17.854,3.832c3.115-1.705,6.192-3.486,9.196-5.396c5.689-3.614,13.582-9.19,16.833-15.618
					C151.832,59.053,150.941,55.985,149.216,53.071z"/>
			</g>
			<g>
				<path style="fill:#3F2112;" d="M97.467,39.408c8.146-0.379,16.751-0.427,24.579,2.189c6.282,2.1,13.108,5.994,15.521,12.556
					c0.615,1.675,1.055,3.415,1.191,5.2c0.127,1.656-0.363,3.255-0.29,4.899c0.165,3.638,5.07,6.002,8.406,4.617
					c2.132-2.094,3.977-4.357,5.182-6.741c-0.224-3.076-1.114-6.143-2.84-9.058c-12.012-20.292-43.211-24.61-62.537-12.754
					c-0.246,0.153-0.494,0.324-0.742,0.481C89.688,39.872,93.628,39.588,97.467,39.408z"/>
			</g>
			<g>
				<path style="fill:#7F1F09;" d="M84.895,73.055c-4.486-1.824-10.073,1.979-12.991,5.218c-5.308,5.892-8.56,13.834-9.814,21.614
					c-2.181,13.54,2.185,26.205,8.916,37.638c-1.054-1.789-0.237-6.332-0.044-8.361c0.284-3.001,0.904-5.956,1.959-8.783
					c2.509-6.71,6.665-12.82,10.085-19.091c3.743-6.866,12.54-21.38,2.989-27.654C85.639,73.399,85.271,73.208,84.895,73.055z"/>
			</g>
		</g>
	</g>
</g>
</svg>
